<mxfile host="app.diagrams.net" agent="Mozilla/5.0 (Windows NT 10.0; Win64; x64) AppleWebKit/537.36 (KHTML, like Gecko) Chrome/135.0.0.0 Safari/537.36" version="26.2.9">
  <diagram name="Page-1" id="_AIfY2RRBH2mW6aAvHMu">
    <mxGraphModel dx="1044" dy="562" grid="1" gridSize="10" guides="1" tooltips="1" connect="1" arrows="1" fold="1" page="1" pageScale="1" pageWidth="850" pageHeight="1100" math="0" shadow="0">
      <root>
        <mxCell id="0" />
        <mxCell id="1" parent="0" />
        <mxCell id="3PK2WsgZdGI9z5cUmh0O-1" value="&lt;div style=&quot;color: rgb(204, 204, 204); background-color: rgb(31, 31, 31); font-family: Consolas, &amp;quot;Courier New&amp;quot;, monospace; font-weight: normal; line-height: 19px; white-space: pre;&quot;&gt;&lt;div&gt;&lt;span style=&quot;color: #6a9955;&quot;&gt;// Factors&lt;/span&gt;&lt;/div&gt;&lt;div&gt;&lt;span style=&quot;color: #6a9955;&quot;&gt;// Step 1: Start&lt;/span&gt;&lt;/div&gt;&lt;div&gt;&lt;span style=&quot;color: #6a9955;&quot;&gt;// Step 2: Initialize variables&lt;/span&gt;&lt;/div&gt;&lt;div&gt;&lt;span style=&quot;color: #6a9955;&quot;&gt;// Step 3: Check the condition (i&amp;lt;=n)&lt;/span&gt;&lt;/div&gt;&lt;div&gt;&lt;span style=&quot;color: #6a9955;&quot;&gt;// Step 4: If the condition is true, then repeat the step 5 to 8 otherwise go to step 9&lt;/span&gt;&lt;/div&gt;&lt;div&gt;&lt;span style=&quot;color: #6a9955;&quot;&gt;// Step 5: If n is divisible by i (n%i==0),then go to step 6 otherwise go to step 7&lt;/span&gt;&lt;/div&gt;&lt;div&gt;&lt;span style=&quot;color: #6a9955;&quot;&gt;// Step 6: Print i as factor of n&lt;/span&gt;&lt;/div&gt;&lt;div&gt;&lt;span style=&quot;color: #6a9955;&quot;&gt;// Step 7: Increment i by 1&lt;/span&gt;&lt;/div&gt;&lt;div&gt;&lt;span style=&quot;color: #6a9955;&quot;&gt;// Step 8: Go to step 4&lt;/span&gt;&lt;/div&gt;&lt;div&gt;&lt;span style=&quot;color: #6a9955;&quot;&gt;// Step 9: End&lt;/span&gt;&lt;/div&gt;&lt;/div&gt;" style="text;whiteSpace=wrap;html=1;fontSize=14;" vertex="1" parent="1">
          <mxGeometry x="40" y="30" width="560" height="210" as="geometry" />
        </mxCell>
        <mxCell id="3PK2WsgZdGI9z5cUmh0O-5" value="" style="edgeStyle=orthogonalEdgeStyle;rounded=0;orthogonalLoop=1;jettySize=auto;html=1;fontSize=14;" edge="1" parent="1" source="3PK2WsgZdGI9z5cUmh0O-2" target="3PK2WsgZdGI9z5cUmh0O-4">
          <mxGeometry relative="1" as="geometry" />
        </mxCell>
        <mxCell id="3PK2WsgZdGI9z5cUmh0O-2" value="Start" style="strokeWidth=2;html=1;shape=mxgraph.flowchart.start_1;whiteSpace=wrap;fontSize=14;" vertex="1" parent="1">
          <mxGeometry x="375" y="290" width="100" height="60" as="geometry" />
        </mxCell>
        <mxCell id="3PK2WsgZdGI9z5cUmh0O-3" value="End" style="strokeWidth=2;html=1;shape=mxgraph.flowchart.start_1;whiteSpace=wrap;fontSize=14;" vertex="1" parent="1">
          <mxGeometry x="375" y="1110" width="100" height="60" as="geometry" />
        </mxCell>
        <mxCell id="3PK2WsgZdGI9z5cUmh0O-7" value="" style="edgeStyle=orthogonalEdgeStyle;rounded=0;orthogonalLoop=1;jettySize=auto;html=1;fontSize=14;" edge="1" parent="1" source="3PK2WsgZdGI9z5cUmh0O-4" target="3PK2WsgZdGI9z5cUmh0O-6">
          <mxGeometry relative="1" as="geometry" />
        </mxCell>
        <mxCell id="3PK2WsgZdGI9z5cUmh0O-4" value="int n, i = 1" style="whiteSpace=wrap;html=1;strokeWidth=2;fontSize=14;" vertex="1" parent="1">
          <mxGeometry x="365" y="390" width="120" height="60" as="geometry" />
        </mxCell>
        <mxCell id="3PK2WsgZdGI9z5cUmh0O-9" value="" style="edgeStyle=orthogonalEdgeStyle;rounded=0;orthogonalLoop=1;jettySize=auto;html=1;fontSize=14;" edge="1" parent="1" source="3PK2WsgZdGI9z5cUmh0O-6" target="3PK2WsgZdGI9z5cUmh0O-8">
          <mxGeometry relative="1" as="geometry" />
        </mxCell>
        <mxCell id="3PK2WsgZdGI9z5cUmh0O-6" value="Enter n" style="shape=parallelogram;perimeter=parallelogramPerimeter;whiteSpace=wrap;html=1;fixedSize=1;strokeWidth=2;fontSize=14;" vertex="1" parent="1">
          <mxGeometry x="365" y="490" width="120" height="60" as="geometry" />
        </mxCell>
        <mxCell id="3PK2WsgZdGI9z5cUmh0O-11" value="" style="edgeStyle=orthogonalEdgeStyle;rounded=0;orthogonalLoop=1;jettySize=auto;html=1;fontSize=14;" edge="1" parent="1" source="3PK2WsgZdGI9z5cUmh0O-8" target="3PK2WsgZdGI9z5cUmh0O-10">
          <mxGeometry relative="1" as="geometry" />
        </mxCell>
        <mxCell id="3PK2WsgZdGI9z5cUmh0O-22" value="True" style="edgeLabel;html=1;align=center;verticalAlign=middle;resizable=0;points=[];fontSize=14;" vertex="1" connectable="0" parent="3PK2WsgZdGI9z5cUmh0O-11">
          <mxGeometry x="-0.34" relative="1" as="geometry">
            <mxPoint as="offset" />
          </mxGeometry>
        </mxCell>
        <mxCell id="3PK2WsgZdGI9z5cUmh0O-27" value="" style="edgeStyle=orthogonalEdgeStyle;rounded=0;orthogonalLoop=1;jettySize=auto;html=1;entryX=1;entryY=0.5;entryDx=0;entryDy=0;fontSize=14;" edge="1" parent="1" source="3PK2WsgZdGI9z5cUmh0O-8" target="3PK2WsgZdGI9z5cUmh0O-17">
          <mxGeometry relative="1" as="geometry">
            <mxPoint x="480" y="1020" as="targetPoint" />
            <Array as="points">
              <mxPoint x="790" y="640" />
              <mxPoint x="790" y="1020" />
            </Array>
          </mxGeometry>
        </mxCell>
        <mxCell id="3PK2WsgZdGI9z5cUmh0O-28" value="False" style="edgeLabel;html=1;align=center;verticalAlign=middle;resizable=0;points=[];fontSize=14;" vertex="1" connectable="0" parent="3PK2WsgZdGI9z5cUmh0O-27">
          <mxGeometry x="-0.7767" relative="1" as="geometry">
            <mxPoint as="offset" />
          </mxGeometry>
        </mxCell>
        <mxCell id="3PK2WsgZdGI9z5cUmh0O-8" value="i &amp;lt;= n" style="rhombus;whiteSpace=wrap;html=1;strokeWidth=2;fontSize=14;" vertex="1" parent="1">
          <mxGeometry x="360" y="600" width="130" height="80" as="geometry" />
        </mxCell>
        <mxCell id="3PK2WsgZdGI9z5cUmh0O-13" value="" style="edgeStyle=orthogonalEdgeStyle;rounded=0;orthogonalLoop=1;jettySize=auto;html=1;fontSize=14;" edge="1" parent="1" source="3PK2WsgZdGI9z5cUmh0O-10" target="3PK2WsgZdGI9z5cUmh0O-12">
          <mxGeometry relative="1" as="geometry" />
        </mxCell>
        <mxCell id="3PK2WsgZdGI9z5cUmh0O-23" value="True" style="edgeLabel;html=1;align=center;verticalAlign=middle;resizable=0;points=[];fontSize=14;" vertex="1" connectable="0" parent="3PK2WsgZdGI9z5cUmh0O-13">
          <mxGeometry x="-0.4233" relative="1" as="geometry">
            <mxPoint as="offset" />
          </mxGeometry>
        </mxCell>
        <mxCell id="3PK2WsgZdGI9z5cUmh0O-15" value="" style="edgeStyle=orthogonalEdgeStyle;rounded=0;orthogonalLoop=1;jettySize=auto;html=1;fontSize=14;" edge="1" parent="1" source="3PK2WsgZdGI9z5cUmh0O-10" target="3PK2WsgZdGI9z5cUmh0O-14">
          <mxGeometry relative="1" as="geometry" />
        </mxCell>
        <mxCell id="3PK2WsgZdGI9z5cUmh0O-25" value="False" style="edgeLabel;html=1;align=center;verticalAlign=middle;resizable=0;points=[];fontSize=14;" vertex="1" connectable="0" parent="3PK2WsgZdGI9z5cUmh0O-15">
          <mxGeometry x="-0.072" relative="1" as="geometry">
            <mxPoint as="offset" />
          </mxGeometry>
        </mxCell>
        <mxCell id="3PK2WsgZdGI9z5cUmh0O-10" value="n % 1 == 0" style="rhombus;whiteSpace=wrap;html=1;strokeWidth=2;fontSize=14;" vertex="1" parent="1">
          <mxGeometry x="360" y="720" width="130" height="80" as="geometry" />
        </mxCell>
        <mxCell id="3PK2WsgZdGI9z5cUmh0O-24" value="" style="edgeStyle=orthogonalEdgeStyle;rounded=0;orthogonalLoop=1;jettySize=auto;html=1;fontSize=14;" edge="1" parent="1" source="3PK2WsgZdGI9z5cUmh0O-12" target="3PK2WsgZdGI9z5cUmh0O-14">
          <mxGeometry relative="1" as="geometry" />
        </mxCell>
        <mxCell id="3PK2WsgZdGI9z5cUmh0O-12" value="Print i" style="shape=parallelogram;perimeter=parallelogramPerimeter;whiteSpace=wrap;html=1;fixedSize=1;strokeWidth=2;fontSize=14;" vertex="1" parent="1">
          <mxGeometry x="600" y="850" width="120" height="60" as="geometry" />
        </mxCell>
        <mxCell id="3PK2WsgZdGI9z5cUmh0O-18" value="" style="edgeStyle=orthogonalEdgeStyle;rounded=0;orthogonalLoop=1;jettySize=auto;html=1;fontSize=14;" edge="1" parent="1" source="3PK2WsgZdGI9z5cUmh0O-14" target="3PK2WsgZdGI9z5cUmh0O-17">
          <mxGeometry relative="1" as="geometry" />
        </mxCell>
        <mxCell id="3PK2WsgZdGI9z5cUmh0O-21" value="" style="edgeStyle=orthogonalEdgeStyle;rounded=0;orthogonalLoop=1;jettySize=auto;html=1;entryX=0;entryY=0.5;entryDx=0;entryDy=0;fontSize=14;" edge="1" parent="1" source="3PK2WsgZdGI9z5cUmh0O-14" target="3PK2WsgZdGI9z5cUmh0O-8">
          <mxGeometry relative="1" as="geometry">
            <mxPoint x="285" y="880" as="targetPoint" />
            <Array as="points">
              <mxPoint x="150" y="880" />
              <mxPoint x="150" y="640" />
            </Array>
          </mxGeometry>
        </mxCell>
        <mxCell id="3PK2WsgZdGI9z5cUmh0O-14" value="i++" style="whiteSpace=wrap;html=1;strokeWidth=2;fontSize=14;" vertex="1" parent="1">
          <mxGeometry x="365" y="850" width="120" height="60" as="geometry" />
        </mxCell>
        <mxCell id="3PK2WsgZdGI9z5cUmh0O-19" value="" style="edgeStyle=orthogonalEdgeStyle;rounded=0;orthogonalLoop=1;jettySize=auto;html=1;fontSize=14;" edge="1" parent="1" source="3PK2WsgZdGI9z5cUmh0O-17" target="3PK2WsgZdGI9z5cUmh0O-3">
          <mxGeometry relative="1" as="geometry" />
        </mxCell>
        <mxCell id="3PK2WsgZdGI9z5cUmh0O-17" value="" style="ellipse;whiteSpace=wrap;html=1;strokeWidth=2;fontSize=14;" vertex="1" parent="1">
          <mxGeometry x="385" y="980" width="80" height="80" as="geometry" />
        </mxCell>
      </root>
    </mxGraphModel>
  </diagram>
</mxfile>
